<?xml version="1.0" encoding="UTF-8"?>
<svg version="1.1" viewBox="0 0 2048 1488" width="1280" height="1280" xmlns="http://www.w3.org/2000/svg">
<path transform="translate(1082,50)" d="m0 0h37l41 2 36 3 33 4 43 7 38 8 40 10 40 12 36 12 39 15 31 13 39 18 24 12 21 12 20 13 14 10 11 9 10 9 17 17 13 17 11 19 8 18 4 12 2 1 45 2 34 1 31 2 28 4 25 7 21 9 21 11 12 8 14 11 10 9 14 14 11 14 10 15 11 20 9 21 7 21 6 23 5 29 3 31v40l-2 22-4 26-7 31-9 29-9 26-12 28-16 33-12 22-15 25-18 27-12 17-14 18-13 16-12 14-12 13-5 6h-2l-2 4-18 18h-2v2l-8 7-13 12-11 9-16 13-18 13-24 16-19 11-23 12-20 9-28 10-14 4-3-1 12-12 8-7 11-10 8-7 13-12 15-14 14-15 24-28 9-11 13-16 10-13 12-16 13-18 10-14 12-18 14-22 16-27 10-18 14-27 14-29 15-36 13-36 10-32 9-36 5-32 1-10v-39l-3-24-5-22-9-27-13-27-12-19-9-12-9-11-18-18-15-11-13-8-16-8-19-7-19-5-21-3-15-1h-27l-2 36-3 26-4 20-6 18-11 21-13 16-6 6-2-1 6-26 4-27 1-10v-37l-4-25-7-21-10-19-8-11-9-10-13-13-18-13-19-11-16-8-23-10-41-15-38-13-43-13-50-13-50-11-39-7-42-6-35-4-39-3-54-2h-26l-52 2-48 4-41 5-43 7-44 9-33 8-37 10-38 12-41 14-33 13-27 12-22 11-27 16-20 14-16 13-20 18-13 14-8 10-13 18-9 15-12 23-20 45-5 11h-1v-11l5-66-1-5-19-5-25-4-11-1h-33l-24 3-25 6-24 9-16 8-16 9-14 10-10 8-10 9-8 7-10 11-8 10-13 18-14 24-10 21-9 24-8 30-4 22-3 28v44l3 30 6 36 7 31 8 28 9 27 12 30 11 24 10 21 12 22 17 29 7 10 10 16 12 17 13 18 10 13 14 18 11 13 20 25 8 13 7 15v3l-5-2-17-11-22-14-23-15-14-10-14-11-14-12-12-11-13-12-27-27-7-8-10-11-9-11-12-15-14-19-17-26-11-19-12-23-9-19-12-31-9-29-7-30-5-30-3-31v-64l3-30 5-29 7-26 7-20 10-23 11-21 12-19 12-16 11-13 9-10 12-12 11-9 10-8 17-12 23-13 17-8 21-8 26-7 30-5 12-1h30l24 3 22 6 19 8 16 9 16 12 11 10h3l11-23 12-23 14-22 12-17 11-14 12-14 14-15 11-11 8-7 14-12 13-10 18-13 19-12 17-10 27-14 27-13 30-12 34-12 28-9 47-13 45-11 43-9 50-8 36-4 44-3z" fill="#722716"/>
<path transform="translate(449,726)" d="m0 0 7 4 11 8 24 16 15 11 12 8 20 14 25 17 27 18 20 13 19 12 16 8 9 3 10 2 10 1h16l64-7 43-4 45-3 49-2h101l45 2 52 4 45 5 48 7 49 9 23 4 20 2h29l21-2 25-5 20-6 19-7 26-12 23-13 27-18 12-9 13-10 18-14 5-4 4 1 7 8-6 7-35 35-8 7-52 52-8 7-10 10 4 3 32 12 23 11 11 8 7 10 5 12 1 4v10l-13 57-6 32-3 24-1 14v22l2 22 6 36 7 31 11 44-4-2-12-17-9-16-8-17-7-21-5-21-4-26-3-31-1-21v-108l-21-7-38-10-37-8-39-7-43-6-57-6-56-4-45-2-37-1h-71l-43 1-61 3-63 5-56 6-52 7-54 9-55 11-54 13-29 8-1 1v305l53-7 63-7 58-5 45-3 73-3 45-1h98l48 1 77 3 84 5 78 6 85 8 84 9 23 3 5 2v1l-62 2-172 7-86 4-81 5-64 5-82 8-86 10-92 12-245 35-9 1h-27l-12-3-9-5-6-7-4-10-1-5v-14l3-18 7-27 9-36 8-42 4-31 3-36 1-21v-32l-2-37-4-37-6-37-5-26-2-21 2-12 5-10 4-5 10-7 14-6 23-7 75-19 19-5v-3l-9-10-8-10-12-14-9-11-12-14-11-14-9-10-9-11-11-13-9-11-11-13-9-11-6-7z" fill="#722717"/>
<path transform="translate(77,776)" d="m0 0 2 1 6 18 5 9 1 8h2l1 6h2l4 10 3 6 4 9v2l2 1 6 10 4 10 4 5v3l3 1 3 7 8 11 3 5 2 1 2 5 7 7 3 6 5 4 3 6v2l4 2 4 4v4h2l4 6 3 3-1 2 3-1 4 5 1 4h2l7 8 4 4v4h-3v-2l-3-1v-2l-3-1v-2h-2l-7-8-1-3h-2v-3h-2l-7-8h-3l-11-14-10-13-12-17-13-20-11-19-12-23-9-19-12-31v-10z" fill="#833A2B"/>
<path transform="translate(232,1007)" d="m0 0 4 1v3h3l7 7 1 3 3 1v2l5 1v2h3v3h3v2l3 1v2l5 1 2 4 8 4v2h4v2l5 1v3l4-1 1 2 4 2v2h3l5 5h3v3l5 2 3 1v2l5 1 1 1 3-2h2l-1-7-1-5v-2l-3-1-1-5h-2l-5-7 2-2 9 10 10 13 8 13 7 15v3l-5-2-17-11-22-14-23-15-14-10-14-11-14-12-8-7v-3z" fill="#853E2F"/>
<path transform="translate(449,726)" d="m0 0 7 4 11 8 24 16 4 4v3l1 4 3 1 1 4-5 1-9-2v-2h-2l-1 2-8-10-11-13-9-11-6-7z" fill="#853D2F"/>
<path transform="translate(1516,219)" d="m0 0 6 2 7 1 4 2 21 9 17 9 9 4v2l5 2 11 7 5 3v2l4 2 3 4 5 2 5 3v3l3 1v2h2l3 3v4l-1 2-16-16-18-13-19-11-16-8-23-10-16-6z" fill="#853D2E"/>
<path transform="translate(1714,323)" d="m0 0h2v2l8-1h7l10-1 9 1v2l3-1 9 3 3 2 3-1 2 2 4 2 10 1 7 3 6 2v2l10 3 7 5v2h2l1 3-6-2-16-8-24-8-18-4-15-2-15-1h-26v-2l9-2 7-1z" fill="#874032"/>
<path transform="translate(1467,1207)" d="m0 0 5 1v3l2 1 3 2 2-1 11 44-4-2-12-17-9-16v-14z" fill="#843C2D"/>
<path transform="translate(1275,152)" d="m0 0 30 4 7 2 11 2 23 5 16 4 17 4 1 1 9 2v2l3-1 7 2 5 1 11 3 3 2 7 1 2 2 7 1v2l-8-1-17-5-38-10-38-9-39-8-16-3-3-1z" fill="#833A2B"/>
<path transform="translate(1379,1298)" d="m0 0h10l50 6 5 2v1l-62 2h-19v-1l17-1v-2l-5-2 4-4z" fill="#742A19"/>
<path transform="translate(1686,302)" d="m0 0 4 1 45 2 34 1 31 2 28 4 25 7 15 6-1 2-9-2v-2l-3 1-21-7-4-1-10-1v-2h-11l-6-2-7-1h-11l-17-2v2l-2-1-10-1h-51l-6 1-8-1-2-4-3-1z" fill="#884234"/>
<path transform="translate(1645,1058)" d="m0 0 2 1-7 7v1l9-2h7l2 1-1 3-4 2-1 3-5 2 1 2-24 8-10 2 6-7 16-15 8-7z" fill="#853D2F"/>
<path transform="translate(654,154)" d="m0 0h2v2l-2 1v3l-11 6-13 8-6 2v2l-7 3-4 4-10 6-6 1v4l-7 3-3-2 19-14 17-11 15-9z" fill="#864031"/>
<path transform="translate(1884,417)" d="m0 0 6 5v3l3 1 2 6 3 1v5l3 1 4 10 4 13-1 3h-2l-1 2-9-21-9-17 1-3-4-7z" fill="#823A2B"/>
<path transform="translate(191,355)" d="m0 0 2 1zm-2 1 2 1-4 4h-2v4l-6 2-5 4-3 3-5 2-5 5-4 2v2l-8 7-17 17-4 3-2-1 15-16 10-10 11-9 10-8z" fill="#894335"/>
<path transform="translate(430,350)" d="m0 0 6 1 6 2v2h2v3l3 1 1-3 4 2 4 4h3l3-7h3v2h-2v3h-2l-3 38h-2l2-32-7-3-24-5 4-2-1-1z" fill="#863F30"/>
<path transform="translate(318,314)" d="m0 0h5l-1 4-11-1-2 3-7-2-3 1-4-1-1 3-9 1-4-1v2l-4 1-1 1-8 1-4 2-6-1-5 3-3-1v-2l26-7 30-5z" fill="#853D2E"/>
<path transform="translate(583,200)" d="m0 0 3 1-1 4-3 2-2-1-1 3-4 2h-3v2l-5 4-1 2h-2v2l-8 7-3 3h-2l-2 4-16 16h-2v2l-4 1 6-7 11-12 12-12 8-7 14-12z" fill="#8A4537"/>
<path transform="translate(1686,302)" d="m0 0 4 1 45 2 34 1-2 2h-62l-6 1-8-1-2-4-3-1z" fill="#8A4537"/>
<path transform="translate(455,408)" d="m0 0h1l1 12 3-1h4l2-1-3 9-9 20h-1v-11z" fill="#8C493B"/>
<path transform="translate(1405,907)" d="m0 0 30 11 18 8 4 3-4 1-3-2-6-2-10-4-17-6-12-6z" fill="#874132"/>
<path transform="translate(1508,781)" d="m0 0 2 1-2 2 6 1 1 5-5 4h-2v2l-4 3h-2v2h-3l-1 2-3 1-1-2 3-5 2-1 3-5 2-2 2-6z" fill="#833A2B"/>
<path transform="translate(1908,473)" d="m0 0 2 2v3l1-5 3 3 3 11-1 5 2 1v2h2v2h-2l-1 3 3 21v11h-1l-3-24-5-22-3-10z" fill="#823A2B"/>
<path transform="translate(122,881)" d="m0 0 3 1 7 11 7 10 6 8 7 10 6 8-1 3-10-12-13-19-12-18z" fill="#793020"/>
<path transform="translate(432,1389)" d="m0 0 14 1 9 2 2 2 8 1v1h-27l-6-1-1-5z" fill="#833A2B"/>
<path transform="translate(1379,1298)" d="m0 0h10l9 1v1l-9 1-2 4 2 1 19 1v1l-26 1h-19v-1l17-1v-2l-5-2 4-4z" fill="#894537"/>
<path transform="translate(1408,1301)" d="m0 0h8l23 3 5 2v1h-33l2-5h-5z" fill="#995D50"/>
<path transform="translate(1635,220)" d="m0 0 7 6 10 10 13 17 4 8-3-1-3-6-5-5v-2l-2-1-6-7-8-8-7-8z" fill="#863F30"/>
<path transform="translate(1767,921)" d="m0 0 1 4-5 4v-3zm-6 8 1 4-7 7-1 3h-2l-1 4-7 7-4 7-4 3-2-1 11-13 12-16z" fill="#8D4A3C"/>
<path transform="translate(281,319)" d="m0 0 2 1-2 3-4 1-1 1-8 1-4 2-6-1-5 3-3-1v-2l26-7z" fill="#884233"/>
<path transform="translate(1833,314)" d="m0 0 10 2 15 5 10 4-1 2-9-2v-2l-3 1-21-7z" fill="#864031"/>
<path transform="translate(241,941)" d="m0 0h2l10 16 12 17v2l-4-2-4-7-2-1-2-5-4-5-3-5-2-2-2-5z" fill="#853E2F"/>
<path transform="translate(462,355)" d="m0 0h3v2h-2v3h-2l-3 38h-2l2-32-1-3 2-1z" fill="#9A5F52"/>
<path transform="translate(167,942)" d="m0 0 6 5v2l3 1v2h2v3h2l7 8 1 4-7-6-9-10-5-6z" fill="#772C1C"/>
<path transform="translate(1670,1035)" d="m0 0h2l-2 4-14 14-3 2-3-1 17-16z" fill="#8A4638"/>
<path transform="translate(292,1012)" d="m0 0 5 5 11 14 5 7-5-2-7-8v-3l-2-1-6-7z" fill="#863F30"/>
<path transform="translate(1916,492)" d="m0 0 2 1v2h2v2h-2l-1 3 3 21v11h-1l-3-24-2-10 1-4z" fill="#904F42"/>
<path transform="translate(93,827)" d="m0 0h2l8 17 4 7v5l-3-4-11-22z" fill="#792F1F"/>
<path transform="translate(394,351)" d="m0 0 7 2v1h-30l3-2z" fill="#833A2B"/>
<path transform="translate(747,190)" d="m0 0 1 2-5 3-7 2-9 3h-5l4-3 16-5z" fill="#833A2B"/>
<path transform="translate(1333,945)" d="m0 0h8l6 2 10 1 3 3-11-1-16-4z" fill="#833A2B"/>
<path transform="translate(318,314)" d="m0 0h5l-1 4-11-1-2 3-6-2v-2l3-1z" fill="#8C493B"/>
<path transform="translate(1786,894)" d="m0 0 2 2-3 1zm-2 3m-1 1 1 4h-2l-1 4-3 1 2-4zm-6 9m-1 1 1 2-4 7h-2l-1 4h-2l2-5z" fill="#8C493B"/>
<path transform="translate(1835,364)" d="m0 0 5 2 2 1v2h2v3l3 1-2 3-8-7-4-4z" fill="#843D2E"/>
<path transform="translate(1653,454)" d="m0 0h1l1 7-1 3 3 1-6 7-2-1z" fill="#8A4537"/>
<path transform="translate(265,976)" d="m0 0 5 5 11 15-1 2-5-5-4-6-4-5z" fill="#884233"/>
<path transform="translate(281,319)" d="m0 0 2 1-2 3-4 1-1 1-8 1v-4z" fill="#8D4A3C"/>
<path transform="translate(1701 1e3)" d="m0 0 1 3-9 10-5 4-2-1 10-10z" fill="#8D4B3D"/>
<path transform="translate(191,355)" d="m0 0 2 1zm-2 1 2 1-4 4h-2v4l-6 2h-3l4-5z" fill="#8D4B3D"/>
<path transform="translate(1767,307)" d="m0 0h20l9 1v1l-11 1-17-2v2l-2-1z" fill="#853E2F"/>
<path transform="translate(459,430)" d="m0 0 1 4-6 13h-1v-8h2v-5z" fill="#7F3828"/>
<path transform="translate(583,200)" d="m0 0 3 1-1 4-3 2-2-1-1 3-6 2 5-7z" fill="#853E2F"/>
<path transform="translate(1767,921)" d="m0 0 1 4-5 4v-3zm-6 8 1 4-7 7-2-1z" fill="#8E4B3E"/>
<path transform="translate(1718,983)" d="m0 0 1 4-6 7-7 6-2-1 10-11z" fill="#8B4739"/>
<path transform="translate(511,273)" d="m0 0 1 4-5 5-1 3h-2l-1 4-5 4 2-5 9-12z" fill="#884335"/>
<path transform="translate(109,859)" d="m0 0 3 1 7 12-1 3-4-5-5-9z" fill="#803B2C"/>
<path transform="translate(1655,243)" d="m0 0 4 2 9 13 1 3-3-1-3-6-5-5v-2l-2-1z" fill="#894335"/>
<path transform="translate(422,353)" d="m0 0 4 1v3l-13-1-11-1v-1h18z" fill="#894335"/>
<path transform="translate(1622,1079)" d="m0 0h2v2h-2v3h2v2l-10 2 6-7z" fill="#782E1E"/>
<path transform="translate(214,342)" d="m0 0 2 1-6 4-7 4-4 2-3-1z" fill="#894436"/>
<path transform="translate(717,200)" d="m0 0h5l-2 1v2l-7 1-1 2h-8l4-2 7-3z" fill="#833A2B"/>
<path transform="translate(1522,223)" d="m0 0h6l3 3 4 2v1l-8-1-5-2z" fill="#7D3727"/>
<path transform="translate(1891,433)" d="m0 0h2l5 9-1 4-3-4-3-6z" fill="#782D1D"/>
<path transform="translate(148,919)" d="m0 0 4 2 6 8-1 3-9-11z" fill="#772C1C"/>
<path transform="translate(176,365)" d="m0 0m-1 1 1 4-5 4-5 1 3-5z" fill="#863F31"/>
<path transform="translate(140,908)" d="m0 0 4 2 5 7-1 3-8-10z" fill="#7A3222"/>
<path transform="translate(1800,873)" d="m0 0 1 2-4 7-4 6-4 2 7-11z" fill="#8A4638"/>
<path transform="translate(78,790)" d="m0 0h2l5 13-1 3v-2h-2l-4-11z" fill="#772C1C"/>
<path transform="translate(1516,219)" d="m0 0 12 3-1 2-8 1-2-2z" fill="#833C2D"/>
<path transform="translate(1621,207)" d="m0 0 8 6 3 4-3 1-7-7z" fill="#894436"/>
<path transform="translate(255,963)" d="m0 0 3 1 7 10v2l-4-2-4-7-2-1z" fill="#8B4638"/>
<path transform="translate(178,955)" d="m0 0h2l7 8 1 4-7-6-3-3z" fill="#7B3323"/>
<path transform="translate(158,931)" d="m0 0h2l7 10-1 3-8-10z" fill="#803A2B"/>
<path transform="translate(1901,452)" d="m0 0 3 3 3 7-1 5-2-3-3-10z" fill="#7B3323"/>
<path transform="translate(1630,290)" d="m0 0h5l2 7h-2l-1 2-3-4z" fill="#7F3526"/>
<path transform="translate(123,415)" d="m0 0 1 4-8 8-2-1z" fill="#8F4D40"/>
<path transform="translate(1833,314)" d="m0 0 10 2 1 3-7-1-3-2z" fill="#82392A"/>
<path transform="translate(1730,968)" d="m0 0h2l-1 4-5 4v-3zm-6 8v3h-3z" fill="#904F42"/>
<path transform="translate(122,881)" d="m0 0 3 1 5 8v2l-3-1-5-8z" fill="#762B1B"/>
<path transform="translate(292,1012)" d="m0 0 5 5 4 5-1 2-5-5-3-5z" fill="#874133"/>
<path transform="translate(1908,473)" d="m0 0 2 2v3l1-5 3 3v5l-1-2h-2l-1 3z" fill="#915043"/>
<path transform="translate(1827,358)" d="m0 0 4 1v2h3l-2 4-6-4z" fill="#874133"/>
<path transform="translate(666,148)" d="m0 0 1 2-3 3h-2v3h-2l-1-2h-3l4-3z" fill="#833A2B"/>
</svg>
